<svg width="391" height="780" viewBox="0 0 391 780" fill="none" xmlns="http://www.w3.org/2000/svg">
<path fill-rule="evenodd" clip-rule="evenodd" d="M274.216 718.537C275.649 712.754 273.54 708.14 267.483 704.734C266.962 703.358 255.257 698.896 245.956 692.346C237.599 686.462 231.538 678.383 231.284 677.935C231.284 677.935 229.405 673.573 229.191 671.604C228.164 662.161 228.758 655.971 228.124 653.034C232.397 652.474 242.904 375.461 241.205 366.28C243.988 365.669 246.94 365.025 249.593 363.459C249.805 363.405 249.457 362.791 249.467 362.676C256.123 349.633 245.912 305.286 239.512 293.007C244.594 292.875 251.289 292.185 254.435 287.95C255.925 287.461 256.864 286.609 257.587 285.239C258.419 283.934 259.191 282.566 259.887 281.163C263.273 274.142 265.362 266.346 264.233 258.611C264.448 258.543 265.557 258.536 265.612 258.226C265.721 256.325 265.371 254.649 264.798 252.853C258.983 232.623 251.984 212.706 242.731 193.661C238.095 183.467 228.502 179.747 218.562 175.92C213.781 174.045 208.997 171.881 204.007 170.653C203.944 170.305 204.242 169.245 203.588 169.331C202.78 169.499 202.939 170.795 202.64 171.523C191.101 162.095 198.418 157.237 191.46 152.073C184.261 148.343 175.48 148.192 167.542 148.999C164.614 149.084 162.27 150.401 161.58 153.343C159.062 159.431 153.164 163.911 146.729 165.285C146.197 164.34 144.735 161.631 143.916 162.486C134.623 162.803 120.532 166.208 111.833 168.755C103.1 170.981 94.2662 175.045 91.9816 184.515C87.8362 201.39 94.4313 270.741 105.249 284.097L105.601 284.103C107.518 286.062 110.125 287.497 113.079 288.46C113.013 294.703 111.041 300.8 110.06 306.906C107.85 317.98 106.152 329.067 103.691 340.2C103.68 341.441 98.9975 358.415 103.614 355.011C104.567 355.479 105.734 355.989 106.76 356.426C101.856 367.582 99.6114 385.582 99.9591 399.364C100.046 407.571 99.7059 414.76 97.8614 423.165C84.2145 494.377 72.1823 653.657 71.8995 655.786C71.6394 657.821 73.3663 668.868 71.8995 671.782C70.5977 674.369 65.0453 672.842 63.9831 673.839C61.2247 678.323 62.4876 681.18 60.225 685.657C59.0647 686.693 56.4703 688.959 55.6192 690.553C53.8962 692.209 25.3606 710.898 26.5172 713.734C26.5172 713.734 26.387 715.094 26.3433 715.39C23.9105 729.518 27.9616 729.4 41.0686 731.479C60.2155 734.849 74.5252 728.364 90.7068 719.699C96.084 716.08 103.727 709.17 101.239 700.986C101.171 700.485 99.6949 691.877 99.1098 687.506C99.1098 687.506 100.696 684.006 94.558 684.442C95.5673 683.337 97.7846 669.012 97.0282 667.117C96.5478 662.236 97.2938 657.805 97.0577 652.781C99.6287 652.972 144.768 439.388 173.081 426.116C173.256 427.534 172.916 430.175 174.803 430.44C183.56 498.629 204.616 651.387 205.583 651.655C204.132 659.441 204.176 677.493 204.149 685.223C203.926 685.43 202.907 686.338 202.743 686.559C202.709 686.502 202.045 687.164 202.011 687.181L201.921 686.976C198.939 693.688 194.592 700.601 198.434 707.179C195.583 706.971 196.04 712.448 195.913 714.968C197.537 719.899 243.705 733.205 254.022 733.836C257.412 734.427 273.199 729.415 276.237 728.695C280.173 727.961 276.311 720.658 274.216 718.537Z" fill="white"/>
<path fill-rule="evenodd" clip-rule="evenodd" d="M163.501 151.686C164.995 151.64 165.281 153.516 164.259 154.294L164.217 154.325C163.346 154.942 162.938 155.493 162.465 156.477C160.161 162.563 153.663 166.054 147.307 164.762C149.515 168.871 150.997 172.849 153.207 176.889C163.382 197.808 196.798 204.613 200.794 175.911C194.671 174.73 191.042 160.989 194.971 156.889L195.077 157.388C196.21 162.77 196.985 168.281 201.073 172.339C201.197 172.375 201.316 172.386 201.434 172.386C201.589 171.65 201.769 170.921 201.992 170.206C202.536 168.462 205.26 168.79 205.183 170.677C213.337 173.156 221.173 176.668 228.972 180.062C235.456 182.884 240.757 187.934 243.777 194.328C252.246 211.818 258.712 230.28 264.349 248.853C264.727 251.363 268.942 260.692 265.541 261.588C266.375 269.273 264.242 277.046 260.945 283.946C259.416 286.539 258.336 290.133 255.264 291.214C252.073 295.214 246.24 296.251 241.383 296.534C247.915 311.88 256.79 350.971 250.789 366.22C251.321 368.722 244.405 369.91 242.555 370.482C244.046 379.377 243.721 388.539 243.078 397.498C237.055 473.913 235.912 550.748 242.249 627.182C242.621 631.946 243.023 636.71 243.448 641.472L243.705 644.327C244.042 648.128 244.329 651.915 244.241 655.747C244.213 657.076 243.108 657.875 242.004 657.944C238.295 660.306 233.313 660.325 229.023 660.895C229.781 665.023 230.205 671.464 231.532 674.937C234.293 674.217 236.072 676.786 233.32 678.237C236.708 680.113 238.45 683.704 241.162 686.225C248.61 683.206 249.997 687.717 243.911 688.745C245.566 690.124 247.322 691.398 249.138 692.607L249.267 692.589C251.415 692.264 255.463 690.492 256.479 692.839C256.936 694.538 254.834 695.077 253.312 695.284C254.663 696.134 256.018 696.979 257.374 697.824C258.56 697.302 259.736 696.652 260.946 696.234C263.923 695.573 264.18 699.429 260.295 699.647C262.729 701.441 266.089 700.408 267.645 702.94C273.338 705.234 276.029 712.163 274.7 717.7C276.699 719.474 278.102 722.133 278.264 724.805C278.65 727.668 276.367 730.361 273.274 731.115C269.791 732.272 266.257 733.328 262.733 734.321L262.364 734.448C259.459 735.436 256.288 736.321 253.267 736.148C235.353 735.082 211.465 727.738 197.127 718.6C193.551 715.917 192.925 709.283 197.847 707.161C195.579 703.057 196.663 700.075 197.624 695.606C198.292 692.691 199.198 689.7 200.839 687.003C200.984 686.764 201.335 686.836 201.354 687.071C201.569 690.121 201.284 693.241 201.056 696.312L201.031 696.653C200.827 699.485 200.368 700.527 201.137 703.209C202.98 710.05 220.744 713.466 227.725 716.288C233.205 717.982 238.769 719.499 244.41 720.833L244.824 720.922C249.587 721.968 254.491 723.551 259.507 722.729C262.108 720.84 266.013 721.372 268.569 719.211C272.424 715.056 269.393 708.965 266.691 705.189C264.079 706.021 261.846 703.783 259.923 702.599L259.851 702.556C257.888 701.316 255.929 702.184 253.962 700.947L253.518 701.031C246.292 702.406 240.697 703.974 252.222 699.86C250.324 698.676 248.421 697.482 246.577 696.226C242.792 696.682 238.645 698.665 235.127 698.845C237.495 696.644 240.724 695.425 243.767 694.214C241.996 692.872 240.31 691.435 238.802 689.854L237.361 690.213C228.511 692.406 225.032 693.04 236.947 687.691C234.604 685.095 234.223 681.249 231.647 678.807C227.503 679.673 223.696 681.492 220.322 683.84C218.957 684.815 217.929 686.033 216.849 687.253C211.727 693.829 203.793 694.843 201.369 686.314C201.327 686.139 201.602 686.031 201.679 686.179L201.688 686.199C202.848 688.819 206.588 690.943 209.713 689.315L209.807 689.264C212.862 687.675 214.282 684.433 216.688 682.224C219.936 679.298 224.007 677.336 228.208 675.863C227.189 672.149 226.846 665.389 226.961 661.032C219.889 661.366 212.77 661.025 205.822 659.684C206.936 667.783 206.204 678.323 206.715 685.546C207.455 687.969 202.956 689.484 202.478 687.07C202.213 679.255 202.979 667.983 204.172 659.262L203.673 659.141C203.202 659.024 202.707 658.883 202.303 658.655C197.844 659.159 199.06 647.852 198.312 644.672C193.282 574.545 182.685 505.047 173.681 435.382C172.432 434.905 172.21 433.375 172.004 432.097C160.657 439.763 158.395 455.082 153.316 466.956C131.133 528.441 121.221 593.309 105.847 656.624L105.931 656.646C105.992 656.664 105.992 656.673 105.866 656.664L105.837 656.662V656.666C106.787 656.792 107.535 657.787 106.956 658.714C105.225 662.201 100.427 660.967 97.2684 660.745C97.575 666.115 96.4229 677.7 97.153 682.483C101.049 682.555 101.297 686.835 101.813 689.379L101.853 689.64C102.541 693.986 104.855 702.136 103.126 705.649C105.798 708.823 103.876 713.134 101.104 715.3C98.1359 717.489 94.4411 718.772 91.0856 720.458C75.2928 726.826 60.0139 739.103 40.6609 734.378L39.8183 734.201C26.2545 731.341 22.3575 730.07 25.0512 716.672C23.945 713.949 23.9376 710.967 25.4941 708.559C28.2699 705.004 32.9337 703.059 36.6447 700.358C42.9303 696.144 49.6202 692.457 55.7595 688.07C55.5313 687.872 55.8481 687.8 56.0343 687.833C60.367 684.448 59.9617 678.587 62.9844 674.405C63.7403 672.25 67.5575 671.725 70.0713 672.024C69.286 668.008 73.1226 649.726 73.6099 662.639L73.6098 662.824C73.6192 664.818 73.9463 671.473 73.3582 672.776C81.7021 675.321 83.5014 683.321 85.287 689.781L85.402 689.812C85.972 689.959 86.7354 690.077 87.0205 690.636C89.7036 688.934 90.4534 685.584 93.052 683.781C92.3231 683.212 92.2847 682.126 92.6566 681.284C93.8668 676.856 94.5924 665.585 96.4205 660.639C87.8308 659.354 79.08 658.701 70.6909 656.37C69.6009 657.439 67.3637 657.06 67.4516 655.131C70.0497 613.094 74.5183 571.188 80.1513 529.454C84.7829 490.389 92.9306 451.821 98.6059 412.961L98.654 407.627C98.8072 391.594 99.2364 375.321 105.227 360.226C104.699 359.996 104.177 359.759 103.662 359.51C97.166 362.197 102.284 345.869 102.523 342.927C105.715 325.866 109.475 308.808 111.872 291.641C109.359 290.734 107.039 289.447 105.103 287.577C93.3667 278.042 86.5631 200.826 90.8286 185.3C93.0551 175.534 102.49 170.736 111.483 168.529L112.811 168.154C122.854 165.335 133.072 162.78 143.528 162.152C143.901 161.815 144.996 161.912 145.139 162.193C145.794 162.587 146.416 163.355 146.942 164.167C161.456 162.502 157.53 153.034 163.501 151.686ZM198.224 707.778C196.192 712.384 198.892 715.887 203.419 717.823C219.095 725.077 236.595 730.906 254.562 732.02C260.044 730.696 265.473 728.51 271.028 727.157L271.268 727.114C273.224 726.755 274.142 726.396 273.974 724.369L274.046 723.549C274.171 722.093 274.277 720.639 274.175 719.183C272.466 723.262 267.351 725.504 262.867 726.327C255.756 729.695 247.794 726.27 240.808 724.828C229.462 721.385 204.914 715.975 198.224 707.778ZM99.7411 707.875L99.5065 707.946C97.4715 708.575 95.4023 709.344 93.1216 708.778C82.9333 712.225 73.0164 716.134 63.1742 720.205C52.5546 725.279 35.4549 731.178 26.2522 718.915C27.5752 725.347 25.7048 727.547 34.4912 729.152C48.4327 733.689 59.6349 731.365 71.2035 725.166C79.6792 721.053 88.7955 717.784 96.9996 713.314L97.1103 713.236C98.724 712.086 100.671 709.989 99.7411 707.875ZM78.5803 680.185C75.9202 675.288 68.7618 672.598 63.438 674.404C62.8963 679.127 64.2996 684.415 61.2944 688.517C63.9555 688.982 66.6082 689.519 69.2568 690.074L71.6806 690.585C72.8701 690.845 74.3838 691.291 74.1851 692.55C73.9653 693.942 72.135 693.516 70.9169 693.166L70.4449 693.028C67.0241 692.023 63.609 690.998 60.2317 689.849C58.4515 691.805 56.0616 693.338 53.7439 694.82L54.7052 694.929C58.0732 695.306 61.4736 695.649 64.8012 696.33C66.2551 696.76 65.9414 698.738 64.4538 698.579C60.481 697.545 56.5188 696.376 52.4779 695.634C50.5027 696.937 48.5368 698.247 46.5568 699.544C50.4509 700.107 54.3621 700.157 58.2543 700.489C60.7743 700.721 60.7736 704.158 58.2541 703.96C53.7074 703.544 49.1635 702.201 44.8345 700.676L42.553 702.173C39.8902 703.919 37.2214 705.66 34.5261 707.365C32.9042 708.396 30.8096 709.377 29.6763 710.87C26.0973 716.639 35.0402 722.152 41.0834 722.061C50.2616 722.158 57.9059 717.402 65.9459 714.555C70.3934 713.456 93.005 702.159 95.0626 705.132C96.3562 704.512 98.1554 704.288 99.0868 703.267C99.2754 698.543 98.2782 693.594 97.4413 688.829C97.2708 687.998 96.8632 687 96.8176 686.147C93.051 687.533 91.9785 692.78 87.0207 692.333C86.2448 693.57 83.8552 692.994 82.777 692.011C81.6036 690.943 81.4563 689.438 81.1763 688.097L81.0466 687.481C80.5201 685.011 79.8891 682.481 78.5803 680.185ZM190.191 279.537L189.585 279.689C183.416 281.23 176.962 282.345 170.622 281.931C169.526 286.069 170.098 295.913 165.64 297.486C164.117 298.059 161.825 297.594 161.127 296.042C151.906 295.878 142.62 295.056 133.399 294.509C126.457 293.964 119.255 293.985 112.573 291.882C113.382 295.951 113.661 299.946 113.208 304.107C111.649 321.855 106.518 339.146 104.798 356.818L104.719 357.659L104.669 357.631C104.669 357.664 104.666 357.697 104.664 357.73C105.165 357.875 105.666 358.027 106.165 358.181C106.343 358.091 106.585 358.178 106.713 358.349C143.438 369.749 182.419 374.7 220.694 369.683C227.397 368.848 234.052 367.678 240.66 366.291C240.602 365.701 241.504 365.547 241.662 366.104C243.128 365.849 244.595 365.569 246.053 365.381C245.877 364.886 245.847 364.35 246.027 363.867C248.872 355.348 247.572 345.637 246.675 336.803C245.531 323.24 242.679 309.935 240.375 296.555C229.468 296.061 218.627 294.284 207.668 294.507C206.514 297.493 202.489 300.001 199.338 298.294C197.113 297.094 196.455 294.48 195.562 292.32C193.796 288.049 191.994 283.793 190.191 279.537ZM143.979 162.557C132.526 165.933 120.792 168.345 109.444 172.092C100.012 174.438 93.5733 180.344 93.1757 190.416C92.3975 211.991 94.7676 233.676 98.3452 254.938L98.5319 255.898C100.517 266.145 102.296 276.572 106.045 286.339C111.517 288.878 117.73 289.601 123.717 289.895C132.453 290.339 141.189 290.794 149.918 291.365L156.762 291.808C158.748 291.936 161.509 291.597 163.001 293.138C163.133 293.355 163.402 293.328 163.607 293.463L163.647 293.492C163.865 293.64 164.084 293.998 164.398 293.929C164.909 293.771 165.105 292.755 165.224 292.27L165.235 292.226C165.9 289.63 166.382 286.979 166.996 284.369C168.395 279.235 168.998 273.807 171.125 268.892C168.08 266.953 165.213 264.736 162.754 262.106L159.789 261.064C152.696 258.58 145.522 256.173 138.129 254.685C137.952 256.304 135.623 257.23 134.755 255.535C133.315 251.217 133.048 246.529 132.056 242.079C129.802 228.801 127.125 215.572 125.566 202.189C129.863 214.042 132.09 228.591 135.374 241.402C135.526 241.313 135.737 241.365 135.743 241.574C147.371 237.186 160.281 237.364 171.757 242.022C174.631 243.172 177.551 244.205 180.41 245.392C181.387 245.942 183.332 245.909 183.66 247.112C184.011 246.295 184.483 245.531 185.11 245.015C185.306 244.612 187.529 243.894 187.746 244.69C200.782 246.476 213.458 252.136 226.872 251.18C225.285 245.397 225.473 239.151 225.366 233.178L225.399 232.506C225.675 226.622 225.875 219.339 227.873 214.497C226.594 226.687 227.523 238.897 229.084 250.974C238.545 249.756 234.188 255.155 227.887 254.952C215.169 255.867 203.433 250.253 191.729 246.163C185.336 243.612 184.612 245.773 184.897 251.834C184.902 259.727 188.484 266.93 191.728 273.932L193.185 277.203C195.608 282.645 197.997 288.052 200.35 293.56C210.633 290.157 222.21 292.024 232.862 292.644C240.99 293.663 246.827 293.301 253.703 288.609C256.183 283.879 259.452 279.394 260.729 274.06C262.212 269.171 262.705 264.05 263.137 258.983L262.748 257.566C257.736 239.375 252.19 221.274 244.612 203.949L244.202 202.994C241.632 196.994 239.023 190.697 233.825 186.494C225.101 180.066 214.312 177.215 205.141 171.495L205.083 171.913C204.152 178.475 202.545 185.277 198.337 190.556C190.561 200.084 175.88 200.352 165.93 194.164C155.579 188.452 149.369 177.818 146.348 166.702L146.312 166.58C146.029 165.589 145.242 162.589 143.979 162.557ZM172.09 269.493C172.083 272.987 171.392 276.432 170.925 279.881C176.306 278.821 181.672 278.082 186.964 276.649C181.809 274.705 176.799 272.363 172.09 269.493ZM159.132 241.311C151.285 239.778 143.251 240.695 135.492 241.93C136.335 245.842 137.298 249.718 138.104 253.634C140.882 253.507 167.24 258.166 164.266 261.905C168.156 263.982 171.842 266.423 175.715 268.544C179.61 270.678 183.666 272.512 187.85 274.001L187.629 273.511C184.028 265.483 180.664 256.449 183.439 247.675C179.708 249.169 174.615 245.959 171.001 244.758C167.164 243.222 163.212 242.009 159.132 241.311ZM102.64 210.225C102.667 208.761 107.199 212.96 107.791 213.396L108.148 213.719C112.498 217.659 116.795 221.992 119.219 227.398C119.396 232.71 111.462 219.841 110.363 219.055C107.963 215.972 105.039 213.295 102.64 210.225ZM228.07 222.73C226.844 223.133 230.191 218.982 231.496 219.285C232.015 219.209 232.467 219.961 231.891 220.219L231.604 220.345C230.265 220.925 228.896 221.42 228.07 222.73Z" fill="black"/>
<path fill-rule="evenodd" clip-rule="evenodd" d="M221.038 106.605C220.182 100.189 217.495 93.3756 214.669 87.3933C208.315 74.745 193.768 73.0036 180.727 70.3958C167.858 68.6346 154.231 67.0443 141.556 70.5583C134.43 72.1992 131.647 80.1769 132.772 86.4725C133.414 90.3955 135.313 94.1083 136.933 97.7441C140.152 105.21 142.195 113.204 142.198 121.288C141.977 126.571 141.184 132.6 147.642 134.838C153.788 137.711 154.307 145.498 162.001 149.917C165.113 155.841 173.588 156.363 179.688 157.737C183.544 158.431 187.443 158.941 191.353 159.271C202.674 160.635 211.73 157.551 217.656 148.071C221.622 142.301 224.575 135.639 223.845 128.647C223.119 121.284 221.908 113.959 221.038 106.605Z" fill="white"/>
<path fill-rule="evenodd" clip-rule="evenodd" d="M180.825 55.0239C181.471 54.3355 182.466 54.5716 183.071 55.116C183.464 55.2249 183.845 55.387 184.205 55.6015C185.019 55.5033 185.872 55.5033 186.669 55.5308C186.863 55.4288 187.07 55.338 187.296 55.26C188.909 54.7057 190.338 54.9873 191.516 55.7295C192.084 55.2247 192.8 54.908 193.715 54.9559C194.532 54.9988 195.114 55.3601 195.613 55.8361C196.11 55.1617 196.915 54.6806 197.917 54.6136C199.317 54.52 200.663 55.048 201.779 55.8653C202.429 55.1643 203.315 54.7614 204.303 54.7575C204.953 54.6465 205.639 54.6903 206.258 54.8662C207.158 55.1216 207.948 55.6002 208.577 56.2212C209.572 55.3252 210.791 54.6806 212.196 54.7746C214.014 54.898 215.521 56.1547 216.221 57.7015C217.452 58.1649 218.588 58.8258 219.538 59.7682C219.588 59.8178 219.637 59.8698 219.687 59.922C220.199 60.0994 220.681 60.3509 221.105 60.6821C222.448 61.733 222.748 63.2538 222.303 64.744C222.365 64.9825 222.418 65.2251 222.466 65.4675C223.725 65.6473 224.868 66.3299 225.518 67.4413C226.407 68.9663 226.232 70.9765 225.269 72.4325C224.855 73.0587 224.329 73.5865 223.739 74.0479C224.406 75.4733 224.086 77.1743 223.009 78.3272C222.747 78.7247 222.425 79.0835 222.063 79.4082C222.463 80.882 221.752 82.4025 220.332 83.19L220.211 83.4756C220.19 83.5231 220.17 83.5704 220.148 83.6172C220.133 83.6778 220.113 83.7365 220.094 83.7957C220.06 84.3186 219.877 84.8318 219.513 85.3153C218.769 86.3063 217.846 86.9525 217.357 88.1093L217.308 88.2308C217.097 88.7782 216.418 89.1645 215.839 88.9955C219.053 95.2 220.738 102.104 221.895 108.87C222.472 112.245 222.917 115.632 223.278 119.032L223.632 122.418C223.943 125.428 224.221 128.447 224.222 131.467C224.227 138.297 222.148 144.867 217.687 150.303C213.468 155.441 207.497 159.165 200.752 160.632C193.788 162.144 185.619 161.548 179.373 158.086C177.532 157.068 179.145 154.62 181.019 155.439C184.565 156.99 188.17 158.143 192.101 158.401C195.933 158.654 199.775 158.203 203.409 157.025C209.421 155.073 214.537 150.985 217.825 145.895C219.445 143.386 220.618 140.663 221.243 137.786C222.02 134.2 221.903 130.494 221.617 126.862L221.598 126.614C221.033 119.617 220.289 112.576 219.086 105.649C218.023 99.5225 216.388 93.5205 214.265 87.6513C213.434 86.9633 212.503 86.394 211.508 85.9616C204.22 85.6754 196.919 85.759 189.64 86.2317C183.432 86.6375 177.254 87.324 171.124 88.3245L170.467 88.4329C169.109 88.6601 167.602 88.7901 166.323 89.3038C165.227 89.7457 164.782 90.5949 164.505 91.6388C163.809 94.2796 163.703 97.1697 163.586 99.8776C163.471 102.525 163.731 105.194 163.505 107.832C163.314 110.04 162.712 112.299 160.973 113.896C160.062 114.732 158.942 115.189 157.891 115.824C157.212 116.233 156.924 116.655 157.011 117.414C157.2 119.073 158.622 121.164 157.025 122.585C156.744 122.834 156.258 122.866 155.981 122.585C155.322 121.911 154.412 121.398 153.631 120.854C153.303 120.629 153.575 120.191 153.946 120.347C154.435 120.553 154.933 120.796 155.442 121.008C154.317 120.137 152.718 119.71 151.386 119.457C150.715 119.331 150.01 119.294 149.312 119.353C148.796 119.584 148.268 119.799 147.74 120.009C147.07 120.273 146.392 120.514 145.71 120.741C143.344 122.554 142.214 125.503 142.708 128.386C142.977 129.978 143.758 131.709 145.231 132.639C146.975 133.739 149.312 133.267 151.197 134.084C152.962 134.848 154.036 136.393 154.84 137.992L155.176 138.657C155.922 140.131 156.689 141.566 157.709 142.907C158.889 144.46 160.334 145.855 161.91 147.054C162.675 147.633 163.49 148.155 164.332 148.63L164.563 148.758C165.415 149.228 166.026 149.677 166.084 150.671C166.102 151.018 165.869 151.334 165.57 151.514C164.279 152.283 162.996 151.321 161.922 150.649C160.763 149.926 159.654 149.112 158.629 148.223C156.679 146.538 154.992 144.536 153.695 142.363C152.706 140.708 152.144 138.38 150.582 137.097C149.628 136.315 148.28 136.309 147.088 136.165C145.98 136.031 144.931 135.815 143.945 135.301C139.933 133.206 138.799 128.135 139.751 124.216C139.912 123.555 140.138 122.912 140.417 122.292C138.924 122.526 137.246 121.075 137.852 119.61C137.898 119.5 137.951 119.396 138.002 119.29C137.018 118.681 136.241 117.758 135.873 116.552C135.684 115.928 135.656 115.297 135.755 114.688C135.278 114.388 134.884 113.974 134.63 113.464C133.838 113.12 133.135 112.605 132.715 111.868C132.135 110.852 132.209 109.916 132.651 109.073C132.589 108.967 132.529 108.859 132.471 108.748C130.847 107.78 129.713 106.112 129.842 104.262C129.883 103.649 130.045 103.096 130.294 102.598C130.273 102.536 130.252 102.47 130.234 102.408C128.874 101.758 127.749 100.69 127.348 99.2645C126.947 97.8302 127.42 96.4004 128.365 95.2999C126.982 94.3491 126.15 93.0212 126.655 91.0128C126.86 90.1963 127.272 89.453 127.83 88.8269C127.828 88.8077 127.823 88.7882 127.819 88.7685L127.689 88.6741C125.982 87.4079 125.001 85.7943 126.049 83.8098C126.519 82.9174 127.189 82.2955 127.978 81.8861L128.017 81.7691V81.7691C127.452 80.6318 127.261 79.3688 127.65 78.0408C127.968 76.9471 128.722 76.076 129.685 75.4978C129.621 75.008 129.63 74.4861 129.734 73.9205C129.906 72.9654 130.411 72.1313 131.148 71.5399C131.176 71.4141 131.211 71.2908 131.25 71.1671C131.499 70.4113 131.964 69.5902 132.503 68.9813C132.948 68.4765 133.446 68.2924 134.054 68.2729C134.017 67.8074 134.043 67.3349 134.144 66.8561C134.455 65.3789 135.455 63.9901 136.937 63.3597C137.546 63.1019 138.186 63.0263 138.804 63.0889C139.329 62.0491 140.355 61.2954 141.615 61.1329C142.106 61.0679 142.562 61.0721 142.982 61.1308C143.219 61.0266 143.466 60.9336 143.724 60.8489C143.894 60.7926 144.067 60.7406 144.24 60.6888C144.823 60.0086 145.59 59.4647 146.487 59.1378C147.522 58.7586 148.575 58.7974 149.508 59.1159L149.805 59.0574V59.0574C150.271 58.2992 151.013 57.7121 152.153 57.4456C153.449 57.1445 154.778 57.5648 155.797 58.3297C155.801 58.3297 155.806 58.3297 155.813 58.3273C156.345 57.2073 157.255 56.4275 158.783 56.4816C159.735 56.5163 160.595 56.9606 161.258 57.5932C161.627 57.5496 161.996 57.5106 162.367 57.4719C162.758 57.0405 163.194 56.6378 163.676 56.276C164.464 55.6823 165.489 55.7301 166.07 56.5661C166.197 56.7481 166.314 56.9322 166.432 57.1164L166.964 57.0817V57.0817C167.591 56.2867 168.446 55.7494 169.616 55.7063C170.69 55.6649 171.455 56.1591 172.038 56.8499C172.513 56.8391 172.99 56.8306 173.467 56.8239C174.023 56.2195 174.677 55.6866 175.424 55.2447C175.995 54.9067 176.839 55.0217 177.302 55.4723C177.615 55.7787 177.906 56.0984 178.177 56.4294C178.875 55.6937 179.818 55.2091 180.825 55.0239ZM146.909 123.815C147.985 123.239 149.432 123.863 150.473 124.353C151.743 124.948 153.004 125.847 153.78 126.974C154.838 128.508 152.352 129.747 151.239 128.371C150.554 127.524 150.008 126.671 149.178 125.93C148.42 125.249 147.321 124.794 146.885 123.898C146.869 123.867 146.874 123.833 146.909 123.815ZM147.665 86.5869L147.685 86.5328C147.991 85.7458 146.655 85.4065 146.352 86.1871C145.892 87.3701 146.422 88.6562 147.665 89.1671C148.009 89.3087 148.403 89.2596 148.611 88.934C148.785 88.6599 148.704 88.1851 148.363 88.0449C147.663 87.7574 147.429 87.2499 147.665 86.5869V86.5869ZM136.158 84.3862C136.827 83.8316 135.846 82.9151 135.18 83.4673C134.559 83.9824 134.099 84.6821 134.219 85.4869C134.341 86.3071 134.998 86.8861 135.719 87.2954C136.482 87.7293 137.178 86.6058 136.416 86.173L136.331 86.1238C136.011 85.9373 135.637 85.6808 135.583 85.3138C135.526 84.9239 135.877 84.6195 136.158 84.3862ZM139.953 74.6005L140 74.5678C140.718 74.086 140.029 72.9582 139.302 73.4454C138.636 73.8923 138.102 74.4729 138.046 75.2736C137.991 76.0517 138.413 76.7263 138.963 77.2737C139.576 77.8827 140.553 76.9624 139.941 76.3548C139.345 75.7626 139.229 75.1163 139.953 74.6005V74.6005Z" fill="black"/>
<path fill-rule="evenodd" clip-rule="evenodd" d="M203.056 144.32C201.358 144.782 199.536 144.823 197.805 144.346C196.236 143.913 194.624 142.96 193.469 141.699C192.443 140.579 191.778 139.218 191.805 137.765C191.808 137.599 191.871 137.46 191.968 137.353C192.072 137.237 192.218 137.158 192.375 137.123C192.536 137.088 192.706 137.1 192.85 137.162C192.981 137.218 193.094 137.313 193.164 137.452C193.341 137.671 193.518 137.887 193.696 138.097C195.123 139.754 196.505 140.992 198.652 141.436C199.816 141.677 200.979 141.571 202.047 141.203C203.189 140.809 204.222 140.117 205.031 139.232C205.396 138.831 205.828 138.668 206.25 138.665C206.729 138.662 207.202 138.871 207.558 139.205C207.908 139.533 208.143 139.98 208.164 140.446C208.182 140.856 208.04 141.284 207.662 141.665C206.417 142.923 204.802 143.844 203.056 144.32ZM203.003 123.568C204.743 124.562 207.395 126.881 205.523 129.346C203.319 131.52 200.147 129.028 198.583 127.901C197.134 127.027 195.505 129.274 196.85 130.294C208.147 138.156 212.732 123.828 203.883 122.399C202.909 122.242 202.547 123.261 203.003 123.568ZM186.725 119.193C186.165 118.857 185.507 118.741 184.778 119.053C184.209 119.297 183.209 120.109 182.514 121.176C182.038 121.906 181.7 122.763 181.771 123.656C181.787 123.863 181.705 124.016 181.577 124.129C181.476 124.218 181.329 124.283 181.157 124.304C181.011 124.321 180.847 124.306 180.714 124.267C180.461 124.192 180.327 124.038 180.276 123.912C179.789 122.696 179.999 121.34 180.545 120.116C181.282 118.464 182.619 117.08 183.496 116.634C184.995 115.87 186.764 115.835 188.266 116.613C189.545 117.275 190.344 118.344 191.139 119.434C191.308 119.666 191.476 119.896 191.649 120.121C191.996 120.574 192.031 121.023 191.896 121.408C191.747 121.834 191.367 122.194 190.892 122.383C190.453 122.557 189.943 122.581 189.492 122.402C189.111 122.251 188.761 121.957 188.54 121.457C188.167 120.615 187.546 119.687 186.725 119.193V119.193ZM215.131 121.065C214.748 121.253 214.448 121.31 214.023 121.19C213.788 121.124 213.556 120.996 213.374 120.826C213.194 120.656 213.064 120.445 213.013 120.212C212.889 119.635 212.553 119.095 212.075 118.743C211.666 118.442 211.15 118.283 210.578 118.373C209.96 118.47 209.371 118.842 208.966 119.281C208.831 119.428 208.724 119.595 208.618 119.761C208.418 120.071 208.224 120.359 207.948 120.586C207.844 120.673 207.687 120.733 207.534 120.733C207.472 120.733 207.409 120.724 207.35 120.706C206.735 120.126 206.617 119.686 206.636 119.249C206.657 118.792 206.849 118.328 207.159 117.896C207.887 116.882 209.269 116.05 210.201 115.862C211.478 115.604 212.746 115.913 213.762 116.584C214.808 117.274 215.583 118.344 215.825 119.551C215.883 119.842 215.858 120.156 215.741 120.428C215.626 120.694 215.425 120.921 215.131 121.065ZM189.541 108.379C188.774 109.081 187.867 109.19 186.95 109.286C186.44 109.34 186.033 109.384 185.633 109.469C184.532 109.703 183.444 110.054 182.452 110.561C181.414 111.091 180.283 111.729 179.47 112.548C179.276 112.742 179.094 112.947 178.911 113.151C178.745 113.338 178.584 113.518 178.415 113.691C178.221 113.89 178.037 114.099 177.854 114.307C177.74 114.483 177.718 114.526 177.695 114.571C177.661 114.638 177.621 114.714 177.575 114.795C177.512 114.906 177.439 115.028 177.362 115.138C177.235 115.339 177.166 115.395 177.107 115.42C177.009 115.461 176.916 115.481 176.826 115.47C176.741 115.46 176.661 115.422 176.582 115.359C176.189 115.047 176.073 114.534 176.085 113.99C176.103 113.164 176.427 112.249 176.726 111.687C177.42 110.381 178.384 109.023 179.542 108.048C180.864 106.935 182.31 106.093 183.971 105.512C185.003 105.151 186.198 104.82 187.323 104.862C188.133 104.892 188.905 105.118 189.543 105.683C189.935 106.03 190.123 106.523 190.123 107.016C190.123 107.519 189.928 108.024 189.541 108.379ZM216.689 114.805C216.64 114.881 216.573 114.932 216.498 114.963C216.419 114.996 216.331 115.005 216.247 114.992C216.163 114.979 216.083 114.943 216.02 114.888C215.959 114.836 215.913 114.766 215.893 114.681C215.384 112.581 214.396 111.018 212.288 110.011C211.251 109.515 210.058 109.2 208.929 108.949C208.601 108.876 208.254 108.828 207.905 108.781C206.811 108.63 205.709 108.458 204.996 107.627C204.566 107.126 204.386 106.486 204.488 105.9C204.584 105.349 204.927 104.843 205.55 104.54C207.101 103.786 209.029 104.526 210.596 105.156C210.712 105.203 210.826 105.249 210.938 105.293C212.47 105.901 213.867 106.703 215.016 107.851C215.927 108.762 216.772 110.108 217.112 111.492C217.395 112.644 217.328 113.82 216.689 114.805Z" fill="black"/>
<path fill-rule="evenodd" clip-rule="evenodd" d="M182.473 145.843C184.338 141.734 188.41 138.715 193.099 137.61C196.542 136.802 200.155 136.828 203.665 137.149C205.503 137.316 207.476 137.452 209.209 138.094C210.688 138.643 211.894 139.679 212.801 140.896C213.88 142.338 214.614 143.988 215.13 145.68C215.203 145.92 215.272 146.163 215.336 146.406C215.112 147.683 214.636 148.769 213.379 149.571C212.152 150.355 210.687 150.675 209.228 150.789C209.085 150.724 208.946 150.658 208.82 150.59C206.545 149.366 204.944 146.473 202.074 146.865C199.512 147.215 197.825 150.245 196.302 152.022C191.411 152.557 186.525 151.176 182.545 148.547C182.343 147.647 182.332 146.74 182.473 145.843M218.66 142.726C218.269 141.694 217.776 140.695 217.192 139.753C215.261 136.639 212.297 134.158 208.778 132.74C200.454 129.389 189.684 131.751 182.961 137.246C180.665 139.125 178.343 141.885 177.641 144.854C177.431 144.893 177.233 144.996 177.07 145.14C172.214 142.266 167.212 139.5 163.298 135.516C160.456 132.62 158.479 129.194 157.269 125.429C157.17 125.119 156.638 125.165 156.654 125.508C156.659 125.588 156.663 125.668 156.668 125.748C156.617 125.601 156.378 125.676 156.36 125.82C155.708 130.393 154.894 135.242 155.644 139.84C156.093 142.583 157.418 144.592 159.19 146.76C161.089 149.085 163.238 151.247 165.436 153.32C166.831 154.636 168.288 156.154 169.995 157.12C171.981 158.241 174.234 159.093 176.354 159.958C178.51 160.841 180.699 161.656 182.929 162.363C187.387 163.782 191.994 164.762 196.682 165.191C200.436 165.534 204.725 165.907 208.323 164.58C211.08 163.563 213.305 161.724 215.07 159.512C216.992 157.102 218.511 154.358 219.351 151.464C220.223 148.458 218.844 143.211 218.66 142.726" fill="black"/>
</svg>
