<svg xmlns="http://www.w3.org/2000/svg" version="1.1" xmlns:xlink="http://www.w3.org/1999/xlink" xmlns:svgjs="http://svgjs.dev/svgjs" width="111" height="124"><svg width="111" height="124" viewBox="0 0 111 124" fill="none" xmlns="http://www.w3.org/2000/svg">
<path fill-rule="evenodd" clip-rule="evenodd" d="M96.0377 54.6055C95.1823 48.1887 92.4954 41.3757 89.6694 35.3934C83.3152 22.7451 68.7679 21.0037 55.7269 18.3959C42.858 16.6347 29.2307 15.0444 16.5558 18.5584C9.43023 20.1994 6.64715 28.1771 7.77172 34.4726C8.41351 38.3956 10.3131 42.1084 11.9328 45.7442C15.1524 53.2106 17.195 61.2041 17.1985 69.288C16.9775 74.5707 16.1843 80.6005 22.6423 82.8381C28.7875 85.7108 29.3067 93.4983 37.0015 97.9167C40.1129 103.841 48.5884 104.363 54.6885 105.737C58.5441 106.431 62.4432 106.941 66.3529 107.271C77.6737 108.635 86.7301 105.551 92.6562 96.0708C96.6219 90.3013 99.5751 83.6394 98.8455 76.6469C98.1189 69.2836 96.9084 61.9589 96.0377 54.6055Z" fill="white"></path>
<path fill-rule="evenodd" clip-rule="evenodd" d="M55.8248 3.02391C56.471 2.33546 57.4665 2.57158 58.0707 3.11598C58.4641 3.22495 58.8452 3.38699 59.2052 3.60145C60.0187 3.50332 60.8715 3.50332 61.6693 3.53083C61.8629 3.4288 62.0703 3.33803 62.2961 3.26004C63.9092 2.70568 65.3378 2.9873 66.516 3.72948C67.0836 3.22473 67.7996 2.90801 68.7149 2.95589C69.5318 2.99878 70.1139 3.36013 70.6129 3.83607C71.1104 3.16169 71.9146 2.68055 72.9166 2.61361C74.317 2.52003 75.6633 3.04796 76.7791 3.86531C77.4292 3.16429 78.3154 2.76135 79.3031 2.75746C79.953 2.64654 80.6388 2.6903 81.2584 2.8662C82.1581 3.12161 82.9481 3.60015 83.5772 4.22124C84.5725 3.32525 85.7908 2.68055 87.1956 2.77457C89.0138 2.89805 90.5209 4.15473 91.2215 5.70148C92.452 6.16486 93.5881 6.8258 94.5375 7.76815C94.5882 7.81776 94.6366 7.86975 94.6873 7.92196C95.1989 8.09938 95.6806 8.35089 96.1046 8.68212C97.4481 9.733 97.7476 11.2538 97.3029 12.744C97.3651 12.9825 97.4181 13.2251 97.4665 13.4675C98.7247 13.6473 99.8677 14.3299 100.518 15.4413C101.407 16.9663 101.232 18.9765 100.269 20.4325C99.8546 21.0587 99.3289 21.5865 98.7385 22.0479C99.4061 23.4733 99.0858 25.1743 98.0094 26.3272C97.7472 26.7247 97.4252 27.0835 97.063 27.4082C97.4628 28.882 96.7517 30.4025 95.3321 31.19L95.2107 31.4756C95.1903 31.5231 95.1696 31.5704 95.1482 31.6172C95.1326 31.6778 95.1132 31.7365 95.0941 31.7957C95.0602 32.3186 94.877 32.8318 94.5134 33.3153C93.7689 34.3063 92.8461 34.9525 92.3568 36.1093L92.3078 36.2308C92.0974 36.7782 91.418 37.1645 90.8392 36.9955C94.0532 43.2 95.7382 50.1039 96.895 56.8697C97.4718 60.2451 97.917 63.6321 98.278 67.0322L98.6321 70.418C98.9435 73.4276 99.2207 76.4471 99.2225 79.4666C99.2271 86.2972 97.1485 92.8675 92.6871 98.303C88.4677 103.441 82.4969 107.165 75.7518 108.632C68.7877 110.144 60.6185 109.548 54.3735 106.086C52.5322 105.068 54.1453 102.62 56.0188 103.439C59.5654 104.99 63.1695 106.143 67.1009 106.401C70.9332 106.654 74.7747 106.203 78.4088 105.025C84.4211 103.073 89.5369 98.9854 92.8254 93.8945C94.4454 91.3857 95.6183 88.6629 96.2428 85.7858C97.0202 82.1999 96.9031 78.4935 96.6175 74.8618L96.5977 74.6143C96.0331 67.6169 95.2888 60.5763 94.0859 53.6486C93.0226 47.5225 91.3876 41.5205 89.265 35.6513C88.4336 34.9633 87.5035 34.394 86.5082 33.9616C79.2199 33.6754 71.9186 33.759 64.6397 34.2317C58.4321 34.6375 52.2545 35.324 46.1235 36.3245L45.4668 36.4329C44.1095 36.6601 42.6024 36.7901 41.3234 37.3038C40.2265 37.7457 39.7818 38.5949 39.5052 39.6388C38.8093 42.2796 38.7033 45.1697 38.5858 47.8776C38.4705 50.5246 38.7309 53.1937 38.5051 55.8321C38.3138 58.0395 37.7124 60.299 35.9725 61.8958C35.0623 62.7318 33.9423 63.1889 32.8915 63.8236C32.2117 64.2333 31.9236 64.6555 32.0112 65.4137C32.2001 67.0731 33.622 69.1636 32.025 70.5847C31.7439 70.8338 31.2576 70.8663 30.9811 70.5847C30.322 69.9112 29.4118 69.3976 28.6306 68.8538C28.3033 68.6287 28.5753 68.1911 28.9463 68.3469C29.4348 68.5529 29.9326 68.7955 30.4419 69.0078C29.3173 68.137 27.718 67.71 26.386 67.4565C25.7155 67.3309 25.0103 67.2941 24.3121 67.3528C23.7959 67.5844 23.2681 67.799 22.7404 68.0089C22.0698 68.2735 21.3923 68.5137 20.7102 68.7414C18.3436 70.5544 17.2144 73.503 17.7075 76.3863C17.9771 77.9784 18.7584 79.7095 20.2309 80.6388C21.9754 81.7393 24.3121 81.2668 26.1971 82.0837C27.9623 82.8482 29.0362 84.393 29.8404 85.9918L30.1757 86.6574C30.9222 88.1311 31.6895 89.5657 32.7094 90.907C33.8893 92.4602 35.3342 93.8553 36.9104 95.0535C37.6751 95.6334 38.4901 96.155 39.3325 96.63L39.5628 96.7584C40.4155 97.2285 41.0262 97.6767 41.0838 98.671C41.1022 99.0177 40.8695 99.3339 40.5699 99.5137C39.2794 100.283 37.9958 99.3209 36.9219 98.6494C35.7628 97.9258 34.6544 97.1115 33.6289 96.2233C31.6793 94.5379 29.9925 92.5362 28.6951 90.3632C27.7065 88.7084 27.1442 86.3796 25.5818 85.0971C24.6278 84.3148 23.2797 84.3086 22.0883 84.1654C20.9798 84.0313 19.9313 83.8146 18.945 83.3012C14.933 81.2064 13.7992 76.135 14.7509 72.2162C14.9122 71.5552 15.1381 70.9118 15.4169 70.2923C13.9236 70.5262 12.246 69.075 12.8521 67.6103C12.8982 67.4999 12.9512 67.3961 13.0019 67.2897C12.0179 66.681 11.2413 65.7584 10.8726 64.5515C10.6836 63.9276 10.6559 63.2972 10.755 62.6885C10.278 62.3876 9.88395 61.9736 9.63047 61.4645C8.83774 61.1201 8.13489 60.6047 7.71548 59.8681C7.13476 58.8519 7.2085 57.9161 7.65095 57.0734C7.58873 56.9674 7.52882 56.8591 7.47121 56.7484C5.84658 55.7803 4.71279 54.112 4.84184 52.262C4.88332 51.6489 5.04463 51.0965 5.29351 50.5985C5.27277 50.5356 5.25203 50.4704 5.2336 50.4076C3.87398 49.7577 2.74941 48.6899 2.34844 47.2645C1.94746 45.8302 2.41987 44.4004 3.36469 43.2999C1.98203 42.3491 1.15013 41.0212 1.6548 39.0128C1.8599 38.1963 2.27239 37.453 2.83006 36.8269C2.82776 36.8077 2.82315 36.7882 2.81854 36.7685L2.68918 36.6741C0.982273 35.4079 0.0010554 33.7943 1.04873 31.8098C1.51884 30.9174 2.18943 30.2955 2.97755 29.8861L3.01672 29.7691V29.7691C2.45214 28.6318 2.26087 27.3688 2.65032 26.0408C2.96833 24.9471 3.72188 24.076 4.68514 23.4978C4.62061 23.008 4.62983 22.4861 4.73353 21.9205C4.90636 20.9654 5.41104 20.1313 6.14846 19.5399C6.17611 19.4141 6.21068 19.2908 6.24985 19.1671C6.49873 18.4113 6.96423 17.5902 7.50347 16.9813C7.94823 16.4765 8.44598 16.2924 9.05436 16.2729C9.01749 15.8074 9.04283 15.3349 9.14423 14.8561C9.45533 13.3789 10.4555 11.9901 11.9372 11.3597C12.5456 11.1019 13.1862 11.0263 13.8038 11.0889C14.3292 10.0491 15.3547 9.29541 16.6152 9.13293C17.1061 9.06794 17.5623 9.07206 17.9818 9.13077C18.2191 9.02657 18.4657 8.93363 18.7238 8.84893C18.8943 8.7926 19.0671 8.74061 19.24 8.68884C19.823 8.00861 20.5904 7.46465 21.4868 7.13775C22.5215 6.75865 23.5746 6.79742 24.5079 7.11587L24.8052 7.05738V7.05738C25.2707 6.29917 26.0127 5.7121 27.1534 5.44564C28.4485 5.14452 29.7782 5.56479 30.7967 6.32972C30.8014 6.32972 30.806 6.32972 30.8129 6.32733C31.3452 5.20735 32.2555 4.42747 33.7833 4.48163C34.735 4.51629 35.5946 4.9606 36.2583 5.59317C36.627 5.54962 36.9957 5.51063 37.3667 5.47185C37.7585 5.04054 38.194 4.63782 38.6756 4.27605C39.4637 3.68226 40.4892 3.73013 41.0699 4.56612C41.1967 4.74809 41.3142 4.93222 41.4317 5.11636L41.9641 5.0817V5.0817C42.5909 4.28666 43.4458 3.74941 44.6165 3.7063C45.6903 3.66493 46.4554 4.15906 47.0384 4.8499C47.5132 4.83907 47.9902 4.83062 48.4672 4.82391C49.0226 4.2195 49.677 3.68659 50.4237 3.24466C50.9952 2.90671 51.8386 3.02175 52.3018 3.47234C52.6147 3.77866 52.906 4.09841 53.1768 4.42942C53.8748 3.69374 54.8175 3.20913 55.8248 3.02391ZM21.9085 71.8153C22.9847 71.2391 24.4319 71.863 25.4735 72.3526C26.7432 72.9483 28.0038 73.8473 28.7804 74.9738C29.8381 76.5076 27.3516 77.7467 26.2386 76.3711C25.5541 75.524 25.008 74.6705 24.1784 73.9296C23.4202 73.2494 22.321 72.7945 21.8855 71.8976C21.8693 71.8673 21.874 71.8326 21.9085 71.8153ZM22.6645 34.5869L22.6847 34.5328C22.9907 33.7458 21.655 33.4065 21.3515 34.1871C20.8916 35.3701 21.4218 36.6562 22.6648 37.1671C23.0094 37.3087 23.403 37.2596 23.6106 36.934C23.785 36.6599 23.7041 36.1851 23.3626 36.0449C22.6632 35.7574 22.429 35.2499 22.6645 34.5869V34.5869ZM11.1581 32.3862C11.8266 31.8316 10.8456 30.9151 10.1803 31.4673C9.55949 31.9824 9.09906 32.6821 9.21866 33.4869C9.34057 34.3071 9.99849 34.8861 10.7186 35.2954C11.4819 35.7293 12.1776 34.6058 11.4164 34.173L11.3309 34.1238C11.0114 33.9373 10.6374 33.6808 10.5834 33.3138C10.526 32.9239 10.8769 32.6195 11.1581 32.3862ZM14.9529 22.6005L15.0003 22.5678C15.7183 22.086 15.0286 20.9582 14.3023 21.4454C13.6363 21.8923 13.1021 22.4729 13.0459 23.2736C12.9913 24.0517 13.4125 24.7263 13.9633 25.2737C14.576 25.8827 15.5526 24.9624 14.941 24.3548C14.3451 23.7626 14.2286 23.1163 14.9529 22.6005V22.6005Z" fill="black"></path>
<path fill-rule="evenodd" clip-rule="evenodd" d="M78.0555 92.3195C76.3579 92.7817 74.5358 92.823 72.8054 92.3456C71.2359 91.9126 69.6243 90.9598 68.4692 89.6989C67.4431 88.5788 66.7785 87.2176 66.8046 85.7646C66.8075 85.5987 66.8707 85.4602 66.9678 85.3526C67.0723 85.2369 67.2183 85.1574 67.3747 85.1229C67.5355 85.0875 67.7056 85.1 67.8503 85.1619C67.9814 85.2178 68.0937 85.3129 68.1639 85.4518C68.3415 85.6711 68.5183 85.887 68.6958 86.097C70.1232 87.7539 71.5055 88.9921 73.6518 89.4362C74.8163 89.6772 75.9794 89.5704 77.0466 89.2026C78.1889 88.809 79.2216 88.1169 80.0308 87.2313C80.3965 86.8311 80.8282 86.6677 81.2504 86.665C81.7288 86.6619 82.2016 86.8708 82.5579 87.2048C82.9081 87.5332 83.1425 87.9793 83.1638 88.446C83.1824 88.8556 83.0403 89.2835 82.6621 89.6653C81.4165 90.9227 79.8022 91.8439 78.0555 92.3195ZM78.0031 71.5679C79.7433 72.5622 82.3948 74.8809 80.5228 77.346C78.3192 79.5196 75.1466 77.0274 73.5832 75.9003C72.1335 75.0268 70.5047 77.2734 71.8497 78.2934C83.147 86.1561 87.7316 71.8279 78.8833 70.3988C77.909 70.2413 77.5472 71.2603 78.0031 71.5679ZM61.7247 67.1926C61.1654 66.8563 60.5075 66.7409 59.7783 67.0528C59.2085 67.2963 58.2091 68.1084 57.5136 69.1759C57.0378 69.9062 56.7004 70.763 56.7706 71.6554C56.7869 71.8626 56.7055 72.0154 56.577 72.1284C56.4755 72.2177 56.3289 72.2832 56.1567 72.3037C56.0106 72.3211 55.8469 72.3054 55.7139 72.2664C55.4608 72.1922 55.3269 72.0378 55.2764 71.9119C54.7895 70.6961 54.9992 69.3394 55.545 68.1154C56.2816 66.4635 57.6192 65.0799 58.4956 64.6338C59.9952 63.8702 61.7644 63.835 63.2662 64.613C64.5445 65.2751 65.3439 66.3441 66.1389 67.4337C66.3079 67.6654 66.4757 67.8953 66.649 68.1212C66.9964 68.5739 67.031 69.0228 66.8965 69.4077C66.7474 69.8342 66.3674 70.1941 65.8921 70.3824C65.4529 70.5565 64.9431 70.581 64.4919 70.4022C64.1108 70.2511 63.7611 69.9565 63.5398 69.4567C63.1671 68.615 62.5461 67.6864 61.7247 67.1926V67.1926ZM90.1306 69.0652C89.7475 69.2528 89.4479 69.3094 89.0229 69.1897C88.788 69.1234 88.5557 68.9962 88.3739 68.8253C88.1937 68.6559 88.0637 68.4452 88.0132 68.2115C87.8889 67.6348 87.5532 67.0949 87.0749 66.743C86.666 66.4422 86.1499 66.2827 85.5775 66.3727C84.9598 66.4696 84.3713 66.842 83.966 67.2811C83.8305 67.428 83.7243 67.5949 83.6176 67.7606C83.4179 68.0705 83.2238 68.3586 82.9484 68.5862C82.8439 68.6728 82.6866 68.7328 82.5343 68.7328C82.4723 68.7328 82.4095 68.7233 82.3496 68.7058C81.7348 68.1257 81.6166 67.6857 81.6364 67.2492C81.6572 66.7915 81.8491 66.3281 82.1593 65.8957C82.887 64.8814 84.2685 64.0498 85.2008 63.8615C86.4776 63.6035 87.7456 63.9132 88.7622 64.5835C89.8082 65.2733 90.5833 66.3442 90.825 67.5511C90.8831 67.8418 90.8584 68.1555 90.7407 68.4275C90.6256 68.6934 90.4251 68.921 90.1306 69.0652ZM64.5406 56.3789C63.7744 57.0806 62.8675 57.1893 61.95 57.286C61.4403 57.3402 61.0333 57.384 60.6329 57.4689C59.5322 57.7025 58.4442 58.0542 57.4516 58.5609C56.414 59.0905 55.2832 59.7292 54.4697 60.5474C54.2763 60.7422 54.0939 60.9465 53.9113 61.1512C53.7448 61.3379 53.5844 61.5177 53.4154 61.691C53.2212 61.8901 53.0369 62.0987 52.8535 62.3068C52.7401 62.4824 52.7177 62.5256 52.6949 62.5705C52.6605 62.6381 52.6206 62.7137 52.5749 62.7948C52.5124 62.9059 52.4391 63.0275 52.3625 63.1377C52.2348 63.3392 52.1664 63.3947 52.1072 63.4196C52.009 63.4607 51.9159 63.4809 51.8256 63.4699C51.7409 63.4597 51.6611 63.4214 51.5823 63.3588C51.1889 63.0464 51.0729 62.5336 51.0848 61.9893C51.1028 61.1634 51.4269 60.2489 51.7257 59.6867C52.4203 58.3805 53.3837 57.0226 54.5421 56.0477C55.8639 54.9348 57.31 54.0924 58.9711 53.5118C60.0033 53.151 61.1985 52.8197 62.323 52.8615C63.1325 52.8917 63.9053 53.1179 64.5434 53.6827C64.9353 54.0295 65.1234 54.5227 65.1234 55.0156C65.1234 55.5183 64.9281 56.024 64.5406 56.3789ZM91.6889 62.8052C91.6402 62.8803 91.5727 62.932 91.4977 62.9631C91.419 62.9957 91.3312 63.0051 91.2469 62.9917C91.163 62.9784 91.0832 62.9427 91.02 62.888C90.9593 62.8357 90.9132 62.7662 90.8925 62.6811C90.3838 60.5807 89.396 59.018 87.2877 58.0103C86.2506 57.5146 85.058 57.1996 83.9291 56.9485C83.601 56.8755 83.2544 56.8282 82.9053 56.7803C81.8111 56.6301 80.7091 56.4581 79.9959 55.6267C79.5661 55.126 79.3857 54.4855 79.4877 53.8998C79.5837 53.3483 79.9265 52.8426 80.5497 52.5395C82.1012 51.7854 84.0292 52.5254 85.5959 53.1557C85.7121 53.2025 85.8262 53.2484 85.9378 53.2927C87.4699 53.9007 88.8673 54.7032 90.016 55.8508C90.9274 56.7613 91.7719 58.1073 92.112 59.4919C92.3949 60.6439 92.3284 61.8199 91.6889 62.8052Z" fill="black"></path>
<path fill-rule="evenodd" clip-rule="evenodd" d="M57.4727 93.8433C59.3384 89.7344 63.4105 86.7145 68.0989 85.6105C71.5417 84.8018 75.1549 84.8276 78.6645 85.1486C80.5033 85.3156 82.4756 85.4524 84.2085 86.0943C85.6883 86.6428 86.8943 87.6794 87.801 88.8962C88.8804 90.3381 89.6145 91.9885 90.13 93.68C90.2032 93.9205 90.272 94.1627 90.3362 94.4063C90.112 95.6825 89.6361 96.7688 88.3786 97.5712C87.1516 98.3547 85.6874 98.6752 84.2279 98.7891C84.0847 98.7245 83.9464 98.6581 83.8196 98.59C81.5452 97.366 79.9443 94.4735 77.0736 94.8649C74.5117 95.2145 72.8252 98.2448 71.3017 100.022C66.4113 100.557 61.5245 99.176 57.5454 96.5471C57.3434 95.6474 57.3316 94.74 57.4727 93.8433M93.6601 90.7263C93.2689 89.6943 92.7761 88.6947 92.192 87.7531C90.2612 84.6392 87.297 82.158 83.7782 80.7397C75.4541 77.3892 64.6836 79.7511 57.9613 85.2462C55.665 87.1246 53.3431 89.8851 52.641 92.8544C52.4313 92.8934 52.2334 92.996 52.0704 93.1404C47.2136 90.2659 42.212 87.5002 38.2983 83.5156C35.4561 80.6205 33.4792 77.1942 32.2687 73.4293C32.1697 73.1194 31.6381 73.1647 31.6542 73.5076C31.6588 73.5878 31.6634 73.6678 31.668 73.7481C31.6174 73.6006 31.378 73.6765 31.3596 73.8196C30.7083 78.3933 29.8936 83.2423 30.6439 87.8399C31.0927 90.5832 32.4183 92.5915 34.1903 94.7602C36.089 97.0847 38.2384 99.2469 40.4363 101.32C41.8309 102.636 43.2877 104.154 44.9953 105.12C46.9814 106.241 49.2344 107.093 51.354 107.958C53.5104 108.841 55.699 109.656 57.9291 110.363C62.3868 111.782 66.9942 112.762 71.6821 113.191C75.4357 113.534 79.7255 113.907 83.3225 112.58C86.0796 111.563 88.305 109.724 90.0702 107.512C91.9918 105.102 93.511 102.358 94.3507 99.4637C95.2234 96.4576 93.844 91.211 93.6601 90.7263" fill="black"></path>
</svg><style>@media (prefers-color-scheme: light) { :root { filter: none; } }
@media (prefers-color-scheme: dark) { :root { filter: none; } }
</style></svg>